<svg xmlns="http://www.w3.org/2000/svg" viewBox="0 0 64 64" role="img" aria-labelledby="title">
  <title>星空云绘</title>
  <defs>
    <linearGradient id="sky" x1="10" y1="8" x2="56" y2="58" gradientUnits="userSpaceOnUse">
      <stop stop-color="#4F8CFF"/>
      <stop offset="0.52" stop-color="#7568F4"/>
      <stop offset="1" stop-color="#B764E8"/>
    </linearGradient>
    <linearGradient id="cloud" x1="18" y1="29" x2="48" y2="49" gradientUnits="userSpaceOnUse">
      <stop stop-color="#FFFFFF"/>
      <stop offset="1" stop-color="#E8ECFF"/>
    </linearGradient>
  </defs>
  <rect x="3" y="3" width="58" height="58" rx="18" fill="url(#sky)"/>
  <path d="M49.5 14.5l1.55 4.05 4.05 1.55-4.05 1.55-1.55 4.05-1.55-4.05-4.05-1.55 4.05-1.55 1.55-4.05Z" fill="#FFF6C7"/>
  <circle cx="20" cy="17" r="2" fill="#FFF" opacity=".9"/>
  <circle cx="39" cy="12" r="1.4" fill="#FFF" opacity=".72"/>
  <path d="M21 47.5h25.25a8.25 8.25 0 0 0 .82-16.46A12.9 12.9 0 0 0 22.7 28.3 9.65 9.65 0 0 0 21 47.5Z" fill="url(#cloud)"/>
  <path d="M31.5 23.5l2.05 5.45L39 31l-5.45 2.05-2.05 5.45-2.05-5.45L24 31l5.45-2.05 2.05-5.45Z" fill="#FFD86B"/>
  <path d="M15.5 35.5l1.2 3.3 3.3 1.2-3.3 1.2-1.2 3.3-1.2-3.3L11 40l3.3-1.2 1.2-3.3Z" fill="#DDF9FF"/>
</svg>
