<svg xmlns="http://www.w3.org/2000/svg" viewBox="0 0 128 128" role="img" aria-label="Ziwei compass">
  <defs>
    <radialGradient id="goldGlow" cx="50%" cy="50%" r="58%">
      <stop offset="0%" stop-color="#fff0b8" stop-opacity=".95"/>
      <stop offset="42%" stop-color="#e5bd65" stop-opacity=".78"/>
      <stop offset="100%" stop-color="#8b5d18" stop-opacity=".2"/>
    </radialGradient>
    <filter id="softGlow" x="-40%" y="-40%" width="180%" height="180%">
      <feGaussianBlur stdDeviation="2.8" result="blur"/>
      <feMerge>
        <feMergeNode in="blur"/>
        <feMergeNode in="SourceGraphic"/>
      </feMerge>
    </filter>
  </defs>
  <g fill="none" stroke="url(#goldGlow)" stroke-linecap="round" stroke-linejoin="round" filter="url(#softGlow)">
    <circle cx="64" cy="64" r="48" stroke-width="2.4"/>
    <circle cx="64" cy="64" r="34" stroke-width="1.6" stroke-dasharray="7 7"/>
    <circle cx="64" cy="64" r="16" stroke-width="1.6"/>
    <path d="M64 7v18M64 103v18M7 64h18M103 64h18" stroke-width="2"/>
    <path d="M23.7 23.7l12.8 12.8M91.5 91.5l12.8 12.8M104.3 23.7 91.5 36.5M36.5 91.5 23.7 104.3" stroke-width="1.4"/>
    <path d="m72.5 55.5 28-28-18 38-27 8.5-28 28 18-38z" fill="rgba(229,189,101,.14)" stroke-width="2.2"/>
    <path d="M64 42v44M42 64h44" stroke-width="1.2" opacity=".72"/>
  </g>
</svg>
