<?xml version="1.0" encoding="UTF-8"?>
<svg xmlns="http://www.w3.org/2000/svg" width="1024" height="1024" viewBox="0 0 1024 1024">
  <path fill="#202124" d="M206 274c0-37.6 30.4-68 68-68h335v136H342v340h340V485h136v265c0 37.6-30.4 68-68 68H274c-37.6 0-68-30.4-68-68V274Z"/>
  <path fill="#18B8C8" d="M638 166c17.4 111.8 87.2 181.6 199 199-111.8 17.4-181.6 87.2-199 199-17.4-111.8-87.2-181.6-199-199 111.8-17.4 181.6-87.2 199-199Z"/>
  <path fill="#F06455" d="M380 538c13.7 88.2 68.8 143.3 157 157-88.2 13.7-143.3 68.8-157 157-13.7-88.2-68.8-143.3-157-157 88.2-13.7 143.3-68.8 157-157Z"/>
</svg>
